<svg width="369" height="62" viewBox="0 0 369 62" fill="none" xmlns="http://www.w3.org/2000/svg">
<path d="M29.0398 39.056L32.684 31.6221" stroke="#3D3D3D" stroke-miterlimit="10"/>
<path d="M32.73 5.56895L33.465 4.15259L62.4276 59.9724H47.5673L46.0591 56.91" stroke="#3D3D3D" stroke-miterlimit="10"/>
<path d="M6.08711 56.9098L4.50232 59.9722H19.3549L22.7312 53.1431H42.6445" stroke="#3D3D3D" stroke-miterlimit="10"/>
<path d="M79.3779 20.0541V7.67432H76.3156" stroke="#3D3D3D" stroke-miterlimit="10"/>
<path d="M79.7914 44.1704C79.2937 43.2288 79.0028 42.1799 79.0028 41.0698C79.0028 37.1652 82.6011 33.8655 86.8808 33.8655C88.3355 33.8655 89.7135 34.2559 90.8926 34.9143" stroke="#3D3D3D" stroke-miterlimit="10"/>
<path d="M65.7963 56.9098V59.9722H79.378V55.9988C80.802 58.9234 84.3314 60.4239 89.8055 60.4239C95.2795 60.4239 99.6357 58.5482 103.165 54.7968C106.695 51.0453 108.494 46.4671 108.494 41.0619C108.494 35.6568 106.695 31.1551 103.165 27.4036C102.491 26.6687 101.772 26.0103 101.029 25.4131" stroke="#3D3D3D" stroke-miterlimit="10"/>
<path d="M137.51 34.7766C136.316 34.0799 135.006 33.7124 133.552 33.7124C129.272 33.7124 125.75 37.0887 125.75 41.0622C125.75 42.2335 126.064 43.3436 126.6 44.3389" stroke="#3D3D3D" stroke-miterlimit="10"/>
<path d="M147.662 26.0334C148.014 26.332 148.366 26.6383 148.703 26.9598C152.906 30.8644 155.004 35.5881 155.004 41.0622C155.004 46.5362 152.906 51.2676 148.703 55.2411C144.5 59.1456 139.477 61.0902 133.544 61.0902C127.611 61.0902 122.512 59.138 118.309 55.2411C117.627 54.5826 116.999 53.9013 116.425 53.1969" stroke="#3D3D3D" stroke-miterlimit="10"/>
<path d="M170.928 22.1594H173.991V43.022C173.991 43.6804 174.082 44.2623 174.22 44.7982" stroke="#3D3D3D" stroke-miterlimit="10"/>
<path d="M195.764 22.1594H198.827V44.2929C198.827 49.7669 196.951 53.8935 193.2 56.6726C189.448 59.4518 184.87 60.8758 179.396 60.8758C173.922 60.8758 169.344 59.4518 165.592 56.6726C164.451 55.8075 163.494 54.8275 162.698 53.7251" stroke="#3D3D3D" stroke-miterlimit="10"/>
<path d="M207.823 56.91V59.9724H221.71V34.2406H229.512V22.1594H226.45" stroke="#3D3D3D" stroke-miterlimit="10"/>
<path d="M202.647 31.1782V34.2406H204.76" stroke="#3D3D3D" stroke-miterlimit="10"/>
<path d="M221.71 19.0971V7.67432H218.648" stroke="#3D3D3D" stroke-miterlimit="10"/>
<path d="M308.889 56.9101V59.9725H322.769V37.6093C322.769 30.7955 320.741 25.9186 316.89 23.3462" stroke="#3D3D3D" stroke-miterlimit="10"/>
<path d="M292.888 22.8713C293.233 23.078 293.57 23.3077 293.883 23.5604" stroke="#3D3D3D" stroke-miterlimit="10"/>
<path d="M273.718 22.1594H274.751" stroke="#3D3D3D" stroke-miterlimit="10"/>
<path d="M262.9 56.9099V59.9723H276.78V39.4849C276.78 35.8865 278.878 33.406 281.58 33.406C281.894 33.406 282.2 33.4366 282.484 33.4979" stroke="#3D3D3D" stroke-miterlimit="10"/>
<path d="M285.929 56.9099V59.9723H299.809V39.4849C299.809 35.8865 301.838 33.406 304.609 33.406C304.908 33.406 305.184 33.4366 305.452 33.4902" stroke="#3D3D3D" stroke-miterlimit="10"/>
<path d="M360.001 44.8899H368.016C368.17 43.5424 368.238 42.1108 368.238 40.6867C368.238 35.205 366.363 30.5579 362.688 26.883C362.16 26.3394 361.601 25.8418 361.027 25.3748" stroke="#3D3D3D" stroke-miterlimit="10"/>
<path d="M343.464 33.4289C344.696 32.4642 346.427 31.8364 348.356 31.8364C349.412 31.8364 350.415 32.0584 351.288 32.4336" stroke="#3D3D3D" stroke-miterlimit="10"/>
<path d="M360.001 47.9524C361.057 47.6385 362.075 47.271 363.063 46.8423V57.798C359.465 59.8268 354.81 60.7992 349.03 60.7992C342.652 60.7992 337.546 59 333.572 55.4706C332.799 54.7586 332.102 53.993 331.482 53.1891" stroke="#3D3D3D" stroke-miterlimit="10"/>
<path d="M356.923 44.8899H341.603C341.603 45.066 341.626 45.2421 341.665 45.4105" stroke="#3D3D3D" stroke-miterlimit="10"/>
<path d="M32.73 5.56885L59.3652 56.9099H46.0591" stroke="#3D3D3D" stroke-miterlimit="10"/>
<path d="M6.08704 56.91H16.2925L19.6688 50.0808H41.1285L42.6444 53.1432" stroke="#3D3D3D" stroke-miterlimit="10"/>
<path d="M46.059 56.9098H44.5048L42.6444 53.1431" stroke="#3D3D3D" stroke-miterlimit="10"/>
<path d="M32.73 5.56884L30.4026 1.09009L1.43994 56.9099H6.08713" stroke="#3D3D3D" stroke-miterlimit="10"/>
<path d="M29.0398 39.0563H24.4768L30.4025 26.9751L32.684 31.6223" stroke="#3D3D3D" stroke-miterlimit="10"/>
<path d="M29.0398 39.056H36.3283L32.684 31.6221" stroke="#3D3D3D" stroke-miterlimit="10"/>
<path d="M79.7914 44.1703C77.5023 42.9071 75.9404 40.6256 75.9404 38.0073C75.9404 34.1027 79.5387 30.803 83.8184 30.803C86.8885 30.803 89.6064 32.5103 90.8926 34.9142" stroke="#3D3D3D" stroke-miterlimit="10"/>
<path d="M79.7914 44.1704C80.9781 44.8288 82.3561 45.2116 83.8184 45.2116C88.0981 45.2116 91.6965 41.9884 91.6965 38.0073C91.6965 36.9049 91.4055 35.8636 90.8926 34.9143" stroke="#3D3D3D" stroke-miterlimit="10"/>
<path d="M79.3779 20.0541C77.9616 20.7814 76.9357 21.792 76.3156 23.0705V7.67432" stroke="#3D3D3D" stroke-miterlimit="10"/>
<path d="M65.7963 56.91H76.3156V52.9365C77.7396 55.8611 81.269 57.3617 86.7431 57.3617C92.2171 57.3617 96.5733 55.486 100.103 51.7345C103.632 47.9831 105.431 43.4048 105.431 37.9997C105.431 33.1688 103.931 28.958 101.029 25.4209" stroke="#3D3D3D" stroke-miterlimit="10"/>
<path d="M79.3779 20.054C81.2001 19.1199 83.6653 18.6453 86.743 18.6453C92.0716 18.6453 96.5733 20.521 100.103 24.349C100.432 24.7012 100.73 25.061 101.029 25.4208" stroke="#3D3D3D" stroke-miterlimit="10"/>
<path d="M76.3156 7.67421V4.61182H62.7339V56.9099H65.7963" stroke="#3D3D3D" stroke-miterlimit="10"/>
<path d="M147.662 26.0334C150.517 29.4863 151.941 33.4904 151.941 37.9998C151.941 43.4815 149.844 48.2052 145.64 52.1787C141.437 56.0832 136.415 58.0278 130.482 58.0278C125.099 58.0278 120.399 56.4124 116.433 53.1969" stroke="#3D3D3D" stroke-miterlimit="10"/>
<path d="M147.662 26.0334C147.049 25.2985 146.383 24.5788 145.641 23.8974C141.437 19.924 136.415 17.9717 130.482 17.9717C124.548 17.9717 119.449 19.924 115.246 23.8974C111.12 27.802 109.022 32.5257 109.022 37.9998C109.022 43.4738 111.12 48.2052 115.246 52.1786C115.629 52.5385 116.027 52.8753 116.425 53.1969" stroke="#3D3D3D" stroke-miterlimit="10"/>
<path d="M137.51 34.7765C137.135 34.0721 136.629 33.4214 135.971 32.8242C134.394 31.4002 132.595 30.6499 130.489 30.6499C126.21 30.6499 122.688 34.0262 122.688 37.9997C122.688 40.6639 124.273 43.0526 126.6 44.3388" stroke="#3D3D3D" stroke-miterlimit="10"/>
<path d="M137.51 34.7764C138.03 35.7487 138.298 36.8282 138.298 37.9995C138.298 40.0284 137.548 41.751 135.971 43.175C134.394 44.599 132.595 45.3493 130.489 45.3493C129.073 45.3493 127.748 44.9741 126.6 44.3387" stroke="#3D3D3D" stroke-miterlimit="10"/>
<path d="M170.928 22.1594V39.9596C170.928 42.5856 172.038 44.201 174.22 44.7982" stroke="#3D3D3D" stroke-miterlimit="10"/>
<path d="M170.928 22.1593V19.0969H156.895V41.2304C156.895 46.6355 158.771 50.7621 162.522 53.6101C162.576 53.6484 162.637 53.6867 162.69 53.725" stroke="#3D3D3D" stroke-miterlimit="10"/>
<path d="M195.764 22.1594V41.2305C195.764 46.7045 193.889 50.8311 190.137 53.6102C186.386 56.3894 181.807 57.8134 176.333 57.8134C170.859 57.8134 166.419 56.42 162.698 53.7251" stroke="#3D3D3D" stroke-miterlimit="10"/>
<path d="M195.764 22.1593V19.0969H181.731V39.9595C181.731 43.3358 179.932 45.0584 176.326 45.0584C175.53 45.0584 174.833 44.9589 174.213 44.7904" stroke="#3D3D3D" stroke-miterlimit="10"/>
<path d="M204.76 34.2405V56.9099H207.823" stroke="#3D3D3D" stroke-miterlimit="10"/>
<path d="M226.45 22.1593V19.0969H221.71" stroke="#3D3D3D" stroke-miterlimit="10"/>
<path d="M204.76 34.2406V31.1782H202.647" stroke="#3D3D3D" stroke-miterlimit="10"/>
<path d="M226.45 22.1594V31.1782H218.648V56.91H207.823" stroke="#3D3D3D" stroke-miterlimit="10"/>
<path d="M218.648 7.67421V4.61182H204.76V19.097H199.585V31.1781H202.647" stroke="#3D3D3D" stroke-miterlimit="10"/>
<path d="M218.648 7.67432V19.0971H221.71" stroke="#3D3D3D" stroke-miterlimit="10"/>
<path d="M273.718 22.1593V19.0969H259.837V56.9099H262.9" stroke="#3D3D3D" stroke-miterlimit="10"/>
<path d="M308.889 56.9101H305.827V36.2006C305.827 35.1824 305.697 34.279 305.452 33.498" stroke="#3D3D3D" stroke-miterlimit="10"/>
<path d="M273.718 22.1594V23.7519C274.032 23.1777 274.384 22.6494 274.759 22.1594" stroke="#3D3D3D" stroke-miterlimit="10"/>
<path d="M293.876 23.5528C296.525 19.9851 300.674 18.1936 306.202 18.1936C311.033 18.1936 314.623 20.0004 316.89 23.3461" stroke="#3D3D3D" stroke-miterlimit="10"/>
<path d="M308.889 56.9101H319.707V34.5469C319.707 29.8538 318.742 26.087 316.89 23.3462" stroke="#3D3D3D" stroke-miterlimit="10"/>
<path d="M262.9 56.9098H273.718V36.4224C273.718 32.824 275.815 30.3435 278.518 30.3435C280.462 30.3435 281.856 31.5072 282.484 33.4978" stroke="#3D3D3D" stroke-miterlimit="10"/>
<path d="M285.929 56.91H282.866V36.2005C282.866 35.1899 282.729 34.2865 282.484 33.5056" stroke="#3D3D3D" stroke-miterlimit="10"/>
<path d="M285.929 56.9098H296.747V36.4224C296.747 32.824 298.776 30.3435 301.547 30.3435C303.484 30.3435 304.839 31.5072 305.452 33.4901" stroke="#3D3D3D" stroke-miterlimit="10"/>
<path d="M274.751 22.1594C276.757 19.5334 279.559 18.1936 283.165 18.1936C287.72 18.1936 290.959 19.7554 292.881 22.8638" stroke="#3D3D3D" stroke-miterlimit="10"/>
<path d="M292.888 22.8713C293.118 23.2465 293.332 23.6369 293.524 24.0504C293.638 23.8819 293.761 23.7212 293.876 23.5604" stroke="#3D3D3D" stroke-miterlimit="10"/>
<path d="M343.464 33.4289H351.449C351.449 33.092 351.388 32.7628 351.288 32.4336" stroke="#3D3D3D" stroke-miterlimit="10"/>
<path d="M343.464 33.429H338.541C338.763 30.9561 341.695 28.7742 345.293 28.7742C348.195 28.7742 350.653 30.4432 351.288 32.4337" stroke="#3D3D3D" stroke-miterlimit="10"/>
<path d="M361.019 25.3827C360.582 24.8468 360.123 24.3262 359.618 23.8286C355.943 20.0771 351.212 18.2014 345.286 18.2014C339.36 18.2014 334.33 20.0006 330.426 23.6065C326.598 27.2125 324.645 31.9363 324.645 37.862V38.2371C324.645 44.0863 326.598 48.8177 330.494 52.416C330.808 52.6917 331.138 52.9443 331.467 53.1969" stroke="#3D3D3D" stroke-miterlimit="10"/>
<path d="M360.001 47.9524V54.7356C356.402 56.7644 351.747 57.7368 345.967 57.7368C340.187 57.7368 335.31 56.1902 331.482 53.1891" stroke="#3D3D3D" stroke-miterlimit="10"/>
<path d="M360.001 44.8899V43.7798C359.013 44.2085 357.987 44.576 356.923 44.8899" stroke="#3D3D3D" stroke-miterlimit="10"/>
<path d="M356.923 44.8899C353.876 45.801 350.523 46.2527 346.794 46.2527C344.773 46.2527 343.027 45.9541 341.665 45.4105" stroke="#3D3D3D" stroke-miterlimit="10"/>
<path d="M360.001 47.9523V44.8899" stroke="#3D3D3D" stroke-miterlimit="10"/>
<path d="M361.019 25.3826C363.767 28.7818 365.176 32.9008 365.176 37.6322C365.176 39.0562 365.1 40.4802 364.954 41.8353H338.541C338.587 43.4124 339.743 44.6604 341.665 45.4183" stroke="#3D3D3D" stroke-miterlimit="10"/>
</svg>
