<svg width="462" height="62" viewBox="0 0 462 62" fill="none" xmlns="http://www.w3.org/2000/svg">
<path d="M53.1914 26.9141H56.3123V48.3237C51.3422 55.4316 42.549 60.1754 32.6868 60.1754C24.5802 60.1754 17.6985 57.5773 12.0418 52.3731C11.2226 51.6085 10.4736 50.8204 9.77136 50.0012" stroke="#3D3D3D" stroke-miterlimit="10"/>
<path d="M30.0029 35.8792V39.0001H40.6453" stroke="#3D3D3D" stroke-miterlimit="10"/>
<path d="M45.9275 7.99341C47.0042 8.47715 48.0497 9.01552 49.0484 9.6319V23.3952C44.3826 20.0324 38.9522 18.3471 32.6869 18.3471C28.6375 18.3471 25.1966 19.7203 22.3644 22.4745C19.5321 25.2288 18.1589 28.6696 18.1589 32.797C18.1589 36.035 19.0172 38.8517 20.7571 41.2392" stroke="#3D3D3D" stroke-miterlimit="10"/>
<path d="M93.7088 47.1611C94.7856 46.8412 95.8233 46.4667 96.8298 46.0298V57.1949C93.1627 59.2625 88.4189 60.2535 82.5281 60.2535C76.0288 60.2535 70.8246 58.4199 66.7752 54.823C65.9871 54.0974 65.2771 53.3172 64.6451 52.4979" stroke="#3D3D3D" stroke-miterlimit="10"/>
<path d="M90.5802 44.0481H74.9678C74.9678 44.2275 74.9912 44.407 75.0302 44.5787" stroke="#3D3D3D" stroke-miterlimit="10"/>
<path d="M76.8558 32.3602C78.112 31.3771 79.8753 30.7373 81.8415 30.7373C82.9183 30.7373 83.9404 30.9636 84.8298 31.3459" stroke="#3D3D3D" stroke-miterlimit="10"/>
<path d="M93.7089 44.0481H101.878C102.034 42.6749 102.104 41.2158 102.104 39.7646C102.104 34.1781 100.193 29.4421 96.4475 25.697C95.9091 25.143 95.3396 24.6359 94.7544 24.1599" stroke="#3D3D3D" stroke-miterlimit="10"/>
<path d="M104.172 30.0664V33.1873H106.325" stroke="#3D3D3D" stroke-miterlimit="10"/>
<path d="M109.446 56.29V59.411H123.592V33.1873H131.55V20.8752H128.429" stroke="#3D3D3D" stroke-miterlimit="10"/>
<path d="M123.592 17.7544V6.11328H120.471" stroke="#3D3D3D" stroke-miterlimit="10"/>
<path d="M168.151 17.7543C167.784 17.5046 167.425 17.2238 167.098 16.8961C166.536 16.3343 166.083 15.7179 165.732 15.0625" stroke="#3D3D3D" stroke-miterlimit="10"/>
<path d="M176.593 18.0429C177.132 17.7308 177.639 17.3485 178.107 16.8959C181.165 13.8374 181.165 8.94533 178.107 5.96484C177.576 5.43428 176.983 4.99735 176.351 4.64624" stroke="#3D3D3D" stroke-miterlimit="10"/>
<path d="M165.568 56.29V59.411H179.714V20.8752H176.593" stroke="#3D3D3D" stroke-miterlimit="10"/>
<path d="M197.776 20.8752H198.923" stroke="#3D3D3D" stroke-miterlimit="10"/>
<path d="M186.752 56.2898V59.4108H200.897V38.5317C200.897 34.8646 203.347 32.3367 206.936 32.3367C207.662 32.3367 208.325 32.4459 208.918 32.6409" stroke="#3D3D3D" stroke-miterlimit="10"/>
<path d="M212.445 56.2898V59.4107H226.591V36.6201C226.591 29.9335 224.531 25.0649 220.583 22.373" stroke="#3D3D3D" stroke-miterlimit="10"/>
<path d="M279.732 17.7544V6.11328H276.611" stroke="#3D3D3D" stroke-miterlimit="10"/>
<path d="M287.683 28.9116V20.8752H284.562" stroke="#3D3D3D" stroke-miterlimit="10"/>
<path d="M265.579 56.29V59.4109H279.732V33.1873H286.302" stroke="#3D3D3D" stroke-miterlimit="10"/>
<path d="M260.304 30.0664V33.1873H262.458" stroke="#3D3D3D" stroke-miterlimit="10"/>
<path d="M314.96 33.7332C313.743 33.0232 312.408 32.6487 310.926 32.6487C306.565 32.6487 302.975 36.0895 302.975 40.1389C302.975 41.3327 303.295 42.464 303.842 43.4783" stroke="#3D3D3D" stroke-miterlimit="10"/>
<path d="M325.306 24.8232C325.665 25.1275 326.024 25.4396 326.367 25.7673C330.65 29.7465 332.788 34.5606 332.788 40.1392C332.788 45.7179 330.65 50.5397 326.367 54.5892C322.083 58.5683 316.965 60.5502 310.918 60.5502C304.871 60.5502 299.675 58.5605 295.392 54.5892C294.697 53.9182 294.057 53.2238 293.472 52.5059" stroke="#3D3D3D" stroke-miterlimit="10"/>
<path d="M374.328 20.8752H377.449V43.4318C377.449 49.0105 375.537 53.2159 371.714 56.0482C367.891 58.8804 363.225 60.3317 357.646 60.3317C352.068 60.3317 347.402 58.8804 343.579 56.0482C342.416 55.1665 341.441 54.1678 340.629 53.0443" stroke="#3D3D3D" stroke-miterlimit="10"/>
<path d="M349.017 20.8752H352.138V42.1366C352.138 42.8076 352.232 43.4006 352.372 43.9468" stroke="#3D3D3D" stroke-miterlimit="10"/>
<path d="M412.785 46.0532C413.94 45.5695 414.986 44.9531 415.906 44.1963V57.195C413.074 59.2626 409.251 60.3315 404.359 60.3315C398.016 60.3315 392.734 58.42 388.606 54.5968C387.919 53.9336 387.287 53.2392 386.718 52.5214" stroke="#3D3D3D" stroke-miterlimit="10"/>
<path d="M412.785 21.0859C413.932 21.5463 414.978 22.108 415.906 22.7868V35.8636C413.386 33.7257 409.945 32.649 405.732 32.649C400.302 32.649 396.479 35.7075 396.479 39.991C396.479 41.0599 396.721 42.0508 397.157 42.9325" stroke="#3D3D3D" stroke-miterlimit="10"/>
<path d="M447.178 56.2899V59.4108H461.324V36.6202C461.324 29.84 459.264 24.9401 455.339 22.2717" stroke="#3D3D3D" stroke-miterlimit="10"/>
<path d="M436.551 18.9403V6.11328H433.431" stroke="#3D3D3D" stroke-miterlimit="10"/>
<path d="M422.406 56.2899V59.4109H436.551V38.2275C436.551 34.6307 438.845 32.0325 442.13 32.0325C442.684 32.0325 443.199 32.1027 443.659 32.2275" stroke="#3D3D3D" stroke-miterlimit="10"/>
<path d="M40.6452 39V39.476C37.969 42.5345 34.3019 44.0637 29.5581 44.0637C26.1953 44.0637 23.2616 43.104 20.7415 41.2549" stroke="#3D3D3D" stroke-miterlimit="10"/>
<path d="M40.6453 39.0001V35.8792H30.0029" stroke="#3D3D3D" stroke-miterlimit="10"/>
<path d="M53.1914 26.9141V23.7932H26.882V35.879H30.0029" stroke="#3D3D3D" stroke-miterlimit="10"/>
<path d="M53.1914 26.9141V45.2027C48.2213 52.3107 39.428 57.0545 29.5659 57.0545C21.865 57.0545 15.2642 54.6982 9.77136 50.0012" stroke="#3D3D3D" stroke-miterlimit="10"/>
<path d="M45.9274 7.99341V20.2743C41.2616 16.9115 35.8312 15.2262 29.5659 15.2262C25.5165 15.2262 22.0757 16.5994 19.2434 19.3536C16.4112 22.1078 15.038 25.5487 15.038 29.6761C15.038 33.8036 16.4112 37.2444 19.2434 39.9986C19.7272 40.4589 20.2343 40.8647 20.7571 41.2392" stroke="#3D3D3D" stroke-miterlimit="10"/>
<path d="M45.9274 7.9937V6.51126C41.3396 3.67901 35.9092 2.22778 29.5659 2.22778C21.4593 2.22778 14.5776 4.82596 8.92093 10.1003C3.34226 15.2967 0.51001 21.8038 0.51001 29.6764C0.51001 37.549 3.34226 44.0561 8.92093 49.2525C9.20181 49.5099 9.4905 49.7596 9.77138 50.0015" stroke="#3D3D3D" stroke-miterlimit="10"/>
<path d="M76.8558 32.3603H84.9937C84.9937 32.017 84.9313 31.6814 84.8298 31.3459" stroke="#3D3D3D" stroke-miterlimit="10"/>
<path d="M93.7089 47.1611V54.074C90.0418 56.1416 85.2979 57.1325 79.4072 57.1325C73.5164 57.1325 68.5463 55.5564 64.6451 52.4979" stroke="#3D3D3D" stroke-miterlimit="10"/>
<path d="M93.7089 44.0481V42.9167C92.7024 43.3537 91.6569 43.7282 90.5724 44.0481" stroke="#3D3D3D" stroke-miterlimit="10"/>
<path d="M93.7089 47.1612V44.0481" stroke="#3D3D3D" stroke-miterlimit="10"/>
<path d="M90.5802 44.0481C87.4749 44.9766 84.0575 45.4369 80.2577 45.4369C78.1979 45.4369 76.419 45.1326 75.0302 44.5787" stroke="#3D3D3D" stroke-miterlimit="10"/>
<path d="M76.8559 32.36H71.839C72.0653 29.8399 75.0536 27.6162 78.7207 27.6162C81.6777 27.6162 84.1823 29.3171 84.8299 31.3457" stroke="#3D3D3D" stroke-miterlimit="10"/>
<path d="M94.7545 24.1599C94.3097 23.6137 93.8416 23.0832 93.3266 22.576C89.5815 18.7529 84.7597 16.8413 78.7206 16.8413C72.6816 16.8413 67.5555 18.6749 63.5763 22.3498C59.6751 26.0247 57.6855 30.8387 57.6855 36.8777V37.26C57.6855 43.221 59.6751 48.0429 63.6465 51.71C63.9664 51.9908 64.3019 52.2483 64.6374 52.5058" stroke="#3D3D3D" stroke-miterlimit="10"/>
<path d="M94.7545 24.1599C97.5555 27.6242 98.9911 31.8218 98.9911 36.6437C98.9911 38.0949 98.9131 39.5461 98.7649 40.9271H71.8468C71.8936 42.5344 73.0718 43.8062 75.0302 44.5786" stroke="#3D3D3D" stroke-miterlimit="10"/>
<path d="M120.471 6.11328V17.7544H123.592" stroke="#3D3D3D" stroke-miterlimit="10"/>
<path d="M128.429 20.8751V17.7542H123.592" stroke="#3D3D3D" stroke-miterlimit="10"/>
<path d="M106.325 33.1873V30.0664H104.172" stroke="#3D3D3D" stroke-miterlimit="10"/>
<path d="M106.325 33.1873V56.29H109.446" stroke="#3D3D3D" stroke-miterlimit="10"/>
<path d="M128.429 20.8752V30.0664H120.471V56.29H109.446" stroke="#3D3D3D" stroke-miterlimit="10"/>
<path d="M120.471 6.11312V2.99219H106.325V17.7542H101.051V30.0663H104.172" stroke="#3D3D3D" stroke-miterlimit="10"/>
<path d="M176.593 20.875V18.0427" stroke="#3D3D3D" stroke-miterlimit="10"/>
<path d="M176.593 18.0428V17.7542H168.151" stroke="#3D3D3D" stroke-miterlimit="10"/>
<path d="M165.732 15.0624C168.689 16.6618 172.466 16.2405 174.986 13.775C177.483 11.2782 177.943 7.54871 176.351 4.64624" stroke="#3D3D3D" stroke-miterlimit="10"/>
<path d="M168.151 17.7542H162.448V56.2899H165.568" stroke="#3D3D3D" stroke-miterlimit="10"/>
<path d="M176.359 4.64627C176.008 3.99868 175.548 3.3901 174.994 2.84394C171.935 -0.21458 167.043 -0.21458 163.985 2.84394C160.926 5.82443 160.926 10.7165 163.985 13.775C164.515 14.2978 165.108 14.7191 165.74 15.0624" stroke="#3D3D3D" stroke-miterlimit="10"/>
<path d="M176.593 20.8752V56.29H165.568" stroke="#3D3D3D" stroke-miterlimit="10"/>
<path d="M197.776 20.8751V17.7542H183.631V56.2899H186.752" stroke="#3D3D3D" stroke-miterlimit="10"/>
<path d="M197.776 20.8752V22.4981C198.128 21.9129 198.51 21.3746 198.923 20.8752" stroke="#3D3D3D" stroke-miterlimit="10"/>
<path d="M198.923 20.8753C201.155 18.1991 204.369 16.8337 208.559 16.8337C214.052 16.8337 218.102 18.7687 220.583 22.3734" stroke="#3D3D3D" stroke-miterlimit="10"/>
<path d="M212.445 56.2898H209.324V35.1844C209.324 34.2404 209.184 33.3899 208.926 32.6487" stroke="#3D3D3D" stroke-miterlimit="10"/>
<path d="M186.752 56.2899H197.777V35.4109C197.777 31.7438 200.226 29.2158 203.816 29.2158C206.375 29.2158 208.169 30.4876 208.918 32.641" stroke="#3D3D3D" stroke-miterlimit="10"/>
<path d="M212.445 56.2898H223.47V33.4992C223.47 28.888 222.487 25.1351 220.583 22.373" stroke="#3D3D3D" stroke-miterlimit="10"/>
<path d="M284.562 20.8752V30.0664H276.611V56.29H265.579" stroke="#3D3D3D" stroke-miterlimit="10"/>
<path d="M276.611 6.11312V2.99219H262.458V17.7542H257.183V30.0663H260.304" stroke="#3D3D3D" stroke-miterlimit="10"/>
<path d="M276.611 6.11328V17.7544H279.732" stroke="#3D3D3D" stroke-miterlimit="10"/>
<path d="M262.458 33.1873V56.29H265.579" stroke="#3D3D3D" stroke-miterlimit="10"/>
<path d="M284.562 20.8751V17.7542H279.732" stroke="#3D3D3D" stroke-miterlimit="10"/>
<path d="M262.458 33.1873V30.0664H260.304" stroke="#3D3D3D" stroke-miterlimit="10"/>
<path d="M286.302 33.1873C286.06 34.42 285.935 35.6996 285.935 37.026C285.935 42.6125 288.073 47.4265 292.278 51.4759C292.668 51.8426 293.074 52.1859 293.48 52.5136" stroke="#3D3D3D" stroke-miterlimit="10"/>
<path d="M314.96 33.7333C314.577 33.0155 314.063 32.3523 313.392 31.7437C311.784 30.2925 309.951 29.5278 307.805 29.5278C303.444 29.5278 299.854 32.9687 299.854 37.0181C299.854 39.7333 301.47 42.1676 303.841 43.4784" stroke="#3D3D3D" stroke-miterlimit="10"/>
<path d="M314.96 33.7334C315.49 34.7243 315.764 35.8244 315.764 37.0182C315.764 39.0858 314.999 40.8413 313.392 42.2926C311.784 43.7438 309.951 44.5084 307.805 44.5084C306.362 44.5084 305.012 44.1261 303.842 43.4785" stroke="#3D3D3D" stroke-miterlimit="10"/>
<path d="M325.306 24.8232C328.216 28.3421 329.667 32.4227 329.667 37.0183C329.667 42.6048 327.529 47.4188 323.246 51.4682C318.962 55.4474 313.844 57.4292 307.797 57.4292C302.312 57.4292 297.522 55.7829 293.48 52.5059" stroke="#3D3D3D" stroke-miterlimit="10"/>
<path d="M286.302 33.1873C286.591 31.6971 287.051 30.277 287.683 28.9194" stroke="#3D3D3D" stroke-miterlimit="10"/>
<path d="M287.683 28.9117C288.744 26.6334 290.273 24.5424 292.278 22.6464C296.562 18.597 301.758 16.6074 307.805 16.6074C313.852 16.6074 318.97 18.597 323.254 22.6464C324.011 23.3486 324.689 24.0743 325.314 24.8233" stroke="#3D3D3D" stroke-miterlimit="10"/>
<path d="M349.017 20.8752V39.0157C349.017 41.6919 350.148 43.3382 352.372 43.9468" stroke="#3D3D3D" stroke-miterlimit="10"/>
<path d="M349.017 20.8751V17.7542H334.715V40.3107C334.715 45.8192 336.627 50.0246 340.45 52.9271C340.505 52.9661 340.567 53.0051 340.622 53.0441" stroke="#3D3D3D" stroke-miterlimit="10"/>
<path d="M374.328 20.8751V17.7542H360.026V39.0155C360.026 42.4564 358.193 44.2119 354.518 44.2119C353.706 44.2119 352.996 44.1104 352.364 43.9388" stroke="#3D3D3D" stroke-miterlimit="10"/>
<path d="M374.328 20.8752V40.3109C374.328 45.8895 372.416 50.095 368.593 52.9272C364.77 55.7595 360.104 57.2107 354.525 57.2107C348.947 57.2107 344.421 55.7907 340.629 53.0443" stroke="#3D3D3D" stroke-miterlimit="10"/>
<path d="M412.786 21.0859V19.6658C409.953 17.5982 406.13 16.5293 401.238 16.5293C394.895 16.5293 389.613 18.4409 385.485 22.342C381.436 26.1652 379.368 30.987 379.368 36.87C379.368 42.753 381.436 47.5748 385.485 51.476C385.883 51.8427 386.297 52.186 386.718 52.5215" stroke="#3D3D3D" stroke-miterlimit="10"/>
<path d="M412.785 21.0859V32.7348C410.265 30.597 406.824 29.5203 402.611 29.5203C397.181 29.5203 393.358 32.5788 393.358 36.8623C393.358 39.4839 394.793 41.6451 397.157 42.9247" stroke="#3D3D3D" stroke-miterlimit="10"/>
<path d="M412.785 46.0532V54.0818C409.953 56.1495 406.13 57.2184 401.238 57.2184C395.503 57.2184 390.642 55.6501 386.718 52.5292" stroke="#3D3D3D" stroke-miterlimit="10"/>
<path d="M412.786 46.0533V41.0754C410.265 43.1431 406.825 44.212 402.611 44.212C400.505 44.212 398.648 43.7517 397.157 42.9402" stroke="#3D3D3D" stroke-miterlimit="10"/>
<path d="M436.551 18.9403C435.311 19.8376 434.273 21.0236 433.431 22.4904V6.11328" stroke="#3D3D3D" stroke-miterlimit="10"/>
<path d="M436.552 18.9404C438.471 17.5437 440.874 16.8337 443.753 16.8337C449.027 16.8337 452.929 18.7375 455.34 22.272" stroke="#3D3D3D" stroke-miterlimit="10"/>
<path d="M447.178 56.2899H444.057V34.9584C444.057 33.9363 443.925 33.0234 443.667 32.2354" stroke="#3D3D3D" stroke-miterlimit="10"/>
<path d="M447.178 56.2899H458.203V33.4993C458.203 28.8257 457.228 25.0494 455.339 22.2717" stroke="#3D3D3D" stroke-miterlimit="10"/>
<path d="M433.431 6.11312V2.99219H419.285V56.29H422.406" stroke="#3D3D3D" stroke-miterlimit="10"/>
<path d="M422.406 56.29H433.43V35.1067C433.43 31.5098 435.724 28.9116 439.009 28.9116C441.397 28.9116 442.981 30.1288 443.659 32.2276" stroke="#3D3D3D" stroke-miterlimit="10"/>
</svg>
