<svg width="258" height="426" viewBox="0 0 258 426" fill="none" xmlns="http://www.w3.org/2000/svg">
<g clip-path="url(#clip0_21_23223)">
<path d="M105.38 7.11V0" stroke="black" stroke-width="0.75" stroke-miterlimit="10"/>
<path d="M101.42 26.5301C101.97 25.2501 102.46 23.9501 102.9 22.6201" stroke="black" stroke-width="0.75" stroke-miterlimit="10"/>
<path d="M51.38 56.8301C52.87 56.6601 54.38 56.5801 55.91 56.5801C66.59 56.5801 76.49 53.1901 84.57 47.4301C89.05 44.2401 92.97 40.3301 96.16 35.8601" stroke="black" stroke-width="0.75" stroke-miterlimit="10"/>
<path d="M39.55 60.02C41.98 58.95 44.52 58.11 47.17 57.53" stroke="black" stroke-width="0.75" stroke-miterlimit="10"/>
<path d="M17.28 108.85C16.04 105.16 15.37 101.22 15.37 97.12C15.37 85.96 19.88 75.86 27.17 68.53" stroke="black" stroke-width="0.75" stroke-miterlimit="10"/>
<path d="M20.9 116.54C19.92 114.96 19.06 113.3 18.32 111.58" stroke="black" stroke-width="0.75" stroke-miterlimit="10"/>
<path d="M36.37 130.41C35.6 130.04 34.84 129.65 34.1 129.23C31.28 127.63 28.7 125.68 26.41 123.42" stroke="black" stroke-width="0.75" stroke-miterlimit="10"/>
<path d="M187.43 134H52.26" stroke="black" stroke-width="0.75" stroke-miterlimit="10"/>
<path d="M253.48 171.56C250.96 165.02 247.31 159.05 242.76 153.89C242.15 153.2 241.53 152.53 240.89 151.87C231.45 142.11 218.65 135.62 204.35 134.26C202.51 134.09 200.64 134 198.75 134" stroke="black" stroke-width="0.75" stroke-miterlimit="10"/>
<path d="M242.24 242.43C251.53 234.12 257.38 222.04 257.38 208.6V192.63C257.38 189.91 257.2 187.24 256.84 184.62C256.53 182.33 256.08 180.09 255.51 177.89C255.17 176.56 254.78 175.25 254.34 173.96" stroke="black" stroke-width="0.75" stroke-miterlimit="10"/>
<path d="M225.92 251.79C228.85 250.85 231.64 249.62 234.27 248.13" stroke="black" stroke-width="0.75" stroke-miterlimit="10"/>
<path d="M159.22 294.59C159.65 292.63 159.87 290.59 159.87 288.5C159.87 269.43 175.33 253.96 194.41 253.96H212C215.26 253.96 218.44 253.62 221.5 252.96" stroke="black" stroke-width="0.75" stroke-miterlimit="10"/>
<path d="M154.79 304.76C155.91 303.15 156.87 301.41 157.65 299.58" stroke="black" stroke-width="0.75" stroke-miterlimit="10"/>
<path d="M135.42 316.71C137.28 316.44 139.09 316 140.82 315.39C145.21 313.85 149.1 311.27 152.21 307.94" stroke="black" stroke-width="0.75" stroke-miterlimit="10"/>
<path d="M40.15 317H52.15H85.43H131.37" stroke="black" stroke-width="0.75" stroke-miterlimit="10"/>
<path d="M13.09 369.23C5.42 364.12 0.370003 355.4 0.370003 345.5H0.380003C0.380003 341.92 1.04 338.49 2.25 335.33C2.92 333.59 3.75 331.92 4.73 330.36C9.77 322.34 18.7 317 28.88 317" stroke="black" stroke-width="0.75" stroke-miterlimit="10"/>
<path d="M28.87 374C24.41 374 20.19 372.98 16.43 371.15" stroke="black" stroke-width="0.75" stroke-miterlimit="10"/>
<path d="M88.74 374H65.19H54.61" stroke="black" stroke-width="0.75" stroke-miterlimit="10"/>
<path d="M128.3 396.78C127.44 392.55 125.64 388.67 123.14 385.34C120.64 382.01 117.21 379.09 113.36 377.12C109.51 375.15 105.05 374 100.38 374H91.53" stroke="black" stroke-width="0.75" stroke-miterlimit="10"/>
<path d="M128.88 410.08V402.5C128.88 400.95 128.76 399.43 128.52 397.95" stroke="black" stroke-width="0.75" stroke-miterlimit="10"/>
<path d="M128.88 424.55V415.54" stroke="black" stroke-width="0.75" stroke-miterlimit="10"/>
<path d="M134.06 415.61L128.87 424.86L123.69 415.61" stroke="black" stroke-width="0.75" stroke-miterlimit="10"/>
</g>
<defs>
<clipPath id="clip0_21_23223">
<rect width="257.75" height="425.63" fill="white"/>
</clipPath>
</defs>
</svg>
