<svg width="294" height="436" viewBox="0 0 294 436" fill="none" xmlns="http://www.w3.org/2000/svg">
<g clip-path="url(#clip0_21_23303)">
<path d="M228.12 388H222.29C213.3 388 205.07 391.21 198.66 396.55C190.54 403.32 185.37 413.52 185.37 424.92V434" stroke="black" stroke-width="0.75" stroke-miterlimit="10"/>
<path d="M240.29 388H232.58" stroke="black" stroke-width="0.75" stroke-miterlimit="10"/>
<path d="M256.87 388H247.83H242.83" stroke="black" stroke-width="0.75" stroke-miterlimit="10"/>
<path d="M282.95 378.49C276.97 384.37 268.76 388 259.71 388" stroke="black" stroke-width="0.75" stroke-miterlimit="10"/>
<path d="M263.84 314.92C265.86 315.24 267.83 315.73 269.72 316.39C280.54 320.14 288.92 329.13 291.79 340.33C292.12 341.61 292.38 342.92 292.56 344.25C292.77 345.78 292.87 347.34 292.87 348.92V354.84C292.87 359.47 291.92 363.88 290.21 367.89" stroke="black" stroke-width="0.75" stroke-miterlimit="10"/>
<path d="M238.25 314.5H258.46" stroke="black" stroke-width="0.75" stroke-miterlimit="10"/>
<path d="M171.25 314.5H173.25H187H190.42H213.08" stroke="black" stroke-width="0.75" stroke-miterlimit="10"/>
<path d="M21.12 314.5H146.29" stroke="black" stroke-width="0.75" stroke-miterlimit="10"/>
<path d="M0.380005 293.75C0.380005 296.11 0.770005 298.37 1.5 300.49C2.52 303.46 4.2 306.13 6.36 308.32C7.93 309.91 9.75 311.24 11.75 312.26C12.86 312.82 14.03 313.29 15.24 313.65" stroke="black" stroke-width="0.75" stroke-miterlimit="10"/>
<path d="M0.679995 285.17C0.479995 286.33 0.369995 287.53 0.369995 288.75" stroke="black" stroke-width="0.75" stroke-miterlimit="10"/>
<path d="M16.15 268.6C11.94 269.63 8.24 271.95 5.49 275.11C3.65 277.22 2.23 279.7 1.36 282.44" stroke="black" stroke-width="0.75" stroke-miterlimit="10"/>
<path d="M40.37 268H21.12" stroke="black" stroke-width="0.75" stroke-miterlimit="10"/>
<path d="M120.33 268H70.04H58.12H43.96" stroke="black" stroke-width="0.75" stroke-miterlimit="10"/>
<path d="M167.88 268H124.71" stroke="black" stroke-width="0.75" stroke-miterlimit="10"/>
<path d="M224.08 268H213.96H187.25" stroke="black" stroke-width="0.75" stroke-miterlimit="10"/>
<path d="M234.93 266.48C232.52 267.46 229.89 268 227.13 268" stroke="black" stroke-width="0.75" stroke-miterlimit="10"/>
<path d="M242.35 261.35C240.85 262.97 239.1 264.34 237.16 265.42" stroke="black" stroke-width="0.75" stroke-miterlimit="10"/>
<path d="M247.88 247.25C247.88 251.59 246.55 255.62 244.27 258.95" stroke="black" stroke-width="0.75" stroke-miterlimit="10"/>
<path d="M247.62 224.49C247.79 225.55 247.87 226.64 247.87 227.75V243.75" stroke="black" stroke-width="0.75" stroke-miterlimit="10"/>
<path d="M238.78 210.58C241.9 212.7 244.42 215.66 246 219.13" stroke="black" stroke-width="0.75" stroke-miterlimit="10"/>
<path d="M231.36 207.43C231.82 207.52 232.27 207.63 232.71 207.76C234.52 208.26 236.23 209.01 237.8 209.95" stroke="black" stroke-width="0.75" stroke-miterlimit="10"/>
<path d="M218.54 207H227.12" stroke="black" stroke-width="0.75" stroke-miterlimit="10"/>
<path d="M204.92 207H206.79H216.75" stroke="black" stroke-width="0.75" stroke-miterlimit="10"/>
<path d="M141.79 207H160.71H172.46" stroke="black" stroke-width="0.75" stroke-miterlimit="10"/>
<path d="M124.67 207H138.88" stroke="black" stroke-width="0.75" stroke-miterlimit="10"/>
<path d="M103.75 202.37C107.47 204.26 111.5 205.63 115.75 206.37C118.15 206.79 120.61 207 123.12 207" stroke="black" stroke-width="0.75" stroke-miterlimit="10"/>
<path d="M86.83 186.85C89.59 191.27 93.13 195.15 97.26 198.29" stroke="black" stroke-width="0.75" stroke-miterlimit="10"/>
<path d="M80.38 134.75V164.25C80.38 170.73 81.82 176.86 84.4 182.36" stroke="black" stroke-width="0.75" stroke-miterlimit="10"/>
<path d="M81.03 127.44C80.8 128.71 80.63 130 80.52 131.3" stroke="black" stroke-width="0.75" stroke-miterlimit="10"/>
<path d="M132.96 94H121.13C119.02 94 116.95 94.16 114.93 94.47C111.05 95.06 107.35 96.2 103.91 97.81C100.15 99.56 96.71 101.87 93.68 104.63C90.3 107.71 87.45 111.35 85.26 115.4" stroke="black" stroke-width="0.75" stroke-miterlimit="10"/>
<path d="M155.96 94H150.33H147.54H135.25" stroke="black" stroke-width="0.75" stroke-miterlimit="10"/>
<path d="M231.79 94H223.71H220.17H169" stroke="black" stroke-width="0.75" stroke-miterlimit="10"/>
<path d="M257.75 94H254.04H239.42" stroke="black" stroke-width="0.75" stroke-miterlimit="10"/>
<path d="M263.25 93.84C262.39 93.95 261.51 94 260.62 94" stroke="black" stroke-width="0.75" stroke-miterlimit="10"/>
<path d="M273.46 89.5601C271.03 91.4801 268.16 92.8601 265.03 93.5401" stroke="black" stroke-width="0.75" stroke-miterlimit="10"/>
<path d="M279.83 81.12C279.23 82.58 278.47 83.96 277.57 85.23" stroke="black" stroke-width="0.75" stroke-miterlimit="10"/>
<path d="M281.18 70.38C281.31 71.32 281.38 72.28 281.38 73.25C281.38 75.48 281.03 77.64 280.37 79.65" stroke="black" stroke-width="0.75" stroke-miterlimit="10"/>
<path d="M274.73 58.03C276.61 59.77 278.17 61.86 279.3 64.19" stroke="black" stroke-width="0.75" stroke-miterlimit="10"/>
<path d="M267.54 53.6801C268.68 54.0801 269.77 54.5801 270.8 55.1601C271.53 55.5701 272.23 56.0201 272.9 56.5201" stroke="black" stroke-width="0.75" stroke-miterlimit="10"/>
<path d="M257.38 52.5H260.63" stroke="black" stroke-width="0.75" stroke-miterlimit="10"/>
<path d="M242.92 52.5H255.92" stroke="black" stroke-width="0.75" stroke-miterlimit="10"/>
<path d="M210.5 52.5H211.79H241.29" stroke="black" stroke-width="0.75" stroke-miterlimit="10"/>
<path d="M203.9 51.7C205.72 52.22 207.64 52.5 209.62 52.5" stroke="black" stroke-width="0.75" stroke-miterlimit="10"/>
<path d="M194.05 45.46C196.08 47.77 198.62 49.62 201.48 50.84" stroke="black" stroke-width="0.75" stroke-miterlimit="10"/>
<path d="M188.88 29.71V31.75C188.88 35.24 189.74 38.53 191.26 41.41" stroke="black" stroke-width="0.75" stroke-miterlimit="10"/>
<path d="M188.88 0V21.17" stroke="black" stroke-width="0.75" stroke-miterlimit="10"/>
<path d="M190.56 425.34L185.38 434.59L180.19 425.34" stroke="black" stroke-width="0.75" stroke-miterlimit="10"/>
</g>
<defs>
<clipPath id="clip0_21_23303">
<rect width="293.25" height="435.36" fill="white"/>
</clipPath>
</defs>
</svg>
