<svg width="246" height="423" viewBox="0 0 246 423" fill="none" xmlns="http://www.w3.org/2000/svg">
<g clip-path="url(#clip0_21_23254)">
<path d="M139.992 402.58C139.031 405.565 138.511 408.771 138.511 412.11V421.076" stroke="black" stroke-width="0.75" stroke-miterlimit="10"/>
<path d="M164.287 383.641C155.368 383.641 147.51 388.638 142.885 396.234" stroke="black" stroke-width="0.75" stroke-miterlimit="10"/>
<path d="M216.81 378.345C213.347 381.076 209.253 382.889 204.818 383.453C203.837 383.575 202.846 383.641 201.835 383.641H171.745" stroke="black" stroke-width="0.75" stroke-miterlimit="10"/>
<path d="M227.611 355.172C227.611 359.638 226.68 363.873 225.019 367.632" stroke="black" stroke-width="0.75" stroke-miterlimit="10"/>
<path d="M225.709 342.214C226.931 345.531 227.611 349.157 227.611 352.961" stroke="black" stroke-width="0.75" stroke-miterlimit="10"/>
<path d="M196.8 324.492H201.835C209.633 324.492 216.63 328.317 221.355 334.365" stroke="black" stroke-width="0.75" stroke-miterlimit="10"/>
<path d="M176.249 324.492H177.751H194.157" stroke="black" stroke-width="0.75" stroke-miterlimit="10"/>
<path d="M1.85188 305.542C3.45351 310.539 6.28639 314.895 9.95011 318.168C14.3746 322.126 20.0103 324.492 26.1566 324.492H171.775" stroke="black" stroke-width="0.75" stroke-miterlimit="10"/>
<path d="M0.380386 291.047V296.023" stroke="black" stroke-width="0.75" stroke-miterlimit="10"/>
<path d="M12.5027 266.89C7.78792 270.152 4.09417 275.038 2.07211 280.854" stroke="black" stroke-width="0.75" stroke-miterlimit="10"/>
<path d="M37.4581 262.578H26.1566C24.9654 262.578 23.8042 262.667 22.653 262.844" stroke="black" stroke-width="0.75" stroke-miterlimit="10"/>
<path d="M67.939 262.578H45.236" stroke="black" stroke-width="0.75" stroke-miterlimit="10"/>
<path d="M166.629 262.578H157.49H83.685" stroke="black" stroke-width="0.75" stroke-miterlimit="10"/>
<path d="M219.853 262.578H216.22H176.119H172.575" stroke="black" stroke-width="0.75" stroke-miterlimit="10"/>
<path d="M241.525 218.698C244.118 223.142 245.62 228.427 245.62 234.109C245.62 237.017 245.229 239.825 244.488 242.468C242.687 248.958 238.843 254.452 233.788 258.057C230.845 260.157 227.481 261.606 223.878 262.236" stroke="black" stroke-width="0.75" stroke-miterlimit="10"/>
<path d="M228.422 207.255C231.195 208.338 233.748 209.919 235.99 211.909" stroke="black" stroke-width="0.75" stroke-miterlimit="10"/>
<path d="M204.107 205.64H219.843C221.665 205.64 223.447 205.85 225.159 206.248" stroke="black" stroke-width="0.75" stroke-miterlimit="10"/>
<path d="M167.841 205.64H180.373H200.494" stroke="black" stroke-width="0.75" stroke-miterlimit="10"/>
<path d="M76.4177 204.833C78.8001 205.364 81.2626 205.64 83.7952 205.64H140.543" stroke="black" stroke-width="0.75" stroke-miterlimit="10"/>
<path d="M46.4272 164.369C46.4272 169.687 47.3381 174.761 48.9898 179.427C51.202 185.651 54.7356 191.146 59.2202 195.469" stroke="black" stroke-width="0.75" stroke-miterlimit="10"/>
<path d="M46.4272 141.427V157.47" stroke="black" stroke-width="0.75" stroke-miterlimit="10"/>
<path d="M82.8742 101.162C77.9993 101.162 73.3445 102.223 69.1002 104.136C68.4896 104.412 67.899 104.7 67.3084 105.009C63.8349 106.822 60.6617 109.233 57.8988 112.107C56.1971 113.876 54.6455 115.833 53.2741 117.934C51.7326 120.3 50.4212 122.853 49.3702 125.562C49.17 126.071 48.9798 126.59 48.7996 127.11C47.7886 130.04 47.0778 133.136 46.7175 136.353C46.5873 137.469 46.5073 138.608 46.4572 139.747" stroke="black" stroke-width="0.75" stroke-miterlimit="10"/>
<path d="M89.521 101.162H87.0485" stroke="black" stroke-width="0.75" stroke-miterlimit="10"/>
<path d="M100.362 100.631C98.3399 100.985 96.2778 101.162 94.1657 101.162" stroke="black" stroke-width="0.75" stroke-miterlimit="10"/>
<path d="M125.307 84.2683C124.597 85.2855 123.846 86.2694 123.055 87.2092C122.354 88.0494 121.624 88.8565 120.863 89.6304C118.19 92.3613 115.177 94.683 111.894 96.5183" stroke="black" stroke-width="0.75" stroke-miterlimit="10"/>
<path d="M133.516 57.7009C133.516 67.0764 130.823 75.7663 126.248 82.8642" stroke="black" stroke-width="0.75" stroke-miterlimit="10"/>
<path d="M133.516 49.0773V54.2514" stroke="black" stroke-width="0.75" stroke-miterlimit="10"/>
<path d="M133.516 0V17.1256V36.2192" stroke="black" stroke-width="0.75" stroke-miterlimit="10"/>
<path d="M143.706 411.922L138.521 422.149L133.326 411.922" stroke="black" stroke-width="0.75" stroke-miterlimit="10"/>
</g>
<defs>
<clipPath id="clip0_21_23254">
<rect width="246" height="423" fill="white"/>
</clipPath>
</defs>
</svg>
