<svg width="28" height="27" viewBox="0 0 28 27" fill="none" xmlns="http://www.w3.org/2000/svg">
<path d="M24.6 26.6301C24.22 26.6301 23.85 26.47 23.59 26.19C20.83 23.21 16.91 21.5 12.84 21.5C9.13001 21.5 5.59999 22.89 2.87999 25.41C2.61999 25.65 2.28999 25.78 1.93999 25.78C1.55999 25.78 1.18998 25.62 0.92998 25.34C0.67998 25.07 0.549985 24.7201 0.559985 24.3501C0.569985 23.9801 0.729987 23.64 0.999987 23.39C3.86999 20.73 5.52998 17.11 5.67998 13.2C5.82998 9.29004 4.44002 5.55004 1.78002 2.68004C1.53002 2.41004 1.39996 2.06005 1.40996 1.69005C1.41996 1.32005 1.57996 0.980042 1.84996 0.730042C2.10996 0.490042 2.43997 0.360046 2.78997 0.360046C3.16997 0.360046 3.53998 0.520049 3.79998 0.800049C6.55998 3.78005 10.48 5.49005 14.55 5.49005C18.26 5.49005 21.79 4.10005 24.51 1.58005C24.76 1.34005 25.1 1.21005 25.45 1.21005C25.83 1.21005 26.2 1.37004 26.46 1.65004C26.98 2.21004 26.94 3.08005 26.39 3.60005C20.47 9.10005 20.12 18.39 25.61 24.31C25.86 24.58 25.99 24.93 25.98 25.3C25.97 25.67 25.81 26.01 25.54 26.26C25.28 26.5 24.95 26.6301 24.6 26.6301Z" fill="white"/>
<path d="M2.79997 0.740051C3.06997 0.740051 3.34001 0.850043 3.53001 1.06004C6.49001 4.25004 10.52 5.87004 14.55 5.87004C18.21 5.87004 21.87 4.54005 24.77 1.86005C24.96 1.68005 25.21 1.59004 25.45 1.59004C25.72 1.59004 25.99 1.70005 26.19 1.91005C26.57 2.32005 26.54 2.95005 26.14 3.33005C20.05 8.97005 19.7 18.4801 25.34 24.5701C25.72 24.9801 25.69 25.6101 25.29 25.9901C25.1 26.1701 24.85 26.26 24.61 26.26C24.34 26.26 24.07 26.15 23.87 25.94C20.91 22.75 16.88 21.1301 12.85 21.1301C9.18996 21.1301 5.52999 22.46 2.62999 25.14C2.43999 25.32 2.19 25.41 1.95 25.41C1.68 25.41 1.40995 25.3 1.21995 25.09C0.839955 24.68 0.870003 24.05 1.27 23.67C7.36 18.03 7.70999 8.52004 2.06999 2.43004C1.68999 2.02004 1.71998 1.39004 2.11998 1.01004C2.30998 0.83004 2.54997 0.740051 2.79997 0.740051ZM2.79997 -0.00994873C2.35997 -0.00994873 1.92997 0.160052 1.60997 0.460052C1.26997 0.780052 1.06997 1.21004 1.04997 1.68004C1.02997 2.15004 1.2 2.59005 1.52 2.94005C4.11 5.74005 5.45999 9.38005 5.31999 13.19C5.17999 17 3.55999 20.53 0.759994 23.12C0.0499938 23.78 0.00996682 24.8901 0.669967 25.6001C0.999967 25.9601 1.47 26.16 1.95 26.16C2.39 26.16 2.82 25.99 3.14 25.69C5.79 23.23 9.23996 21.8801 12.85 21.8801C16.81 21.8801 20.63 23.55 23.32 26.45C23.65 26.81 24.12 27.01 24.61 27.01C25.05 27.01 25.48 26.84 25.8 26.54C26.14 26.22 26.34 25.7901 26.36 25.3201C26.38 24.8501 26.21 24.41 25.89 24.06C23.3 21.26 21.95 17.62 22.09 13.81C22.23 10 23.85 6.47005 26.65 3.88005C27.36 3.22005 27.4 2.11004 26.74 1.40004C26.41 1.04004 25.94 0.840042 25.45 0.840042C25.01 0.840042 24.58 1.01004 24.26 1.31004C21.61 3.77004 18.16 5.12004 14.55 5.12004C10.59 5.12004 6.77 3.45005 4.08 0.550049C3.75 0.200049 3.27997 -0.00994873 2.79997 -0.00994873Z" fill="#3D3D3D"/>
</svg>
